<svg xmlns="http://www.w3.org/2000/svg" viewBox="0 0 24 24" fill="none" stroke="currentColor" stroke-width="2" stroke-linecap="round" stroke-linejoin="round">
  <path d="M9.5 2A2.5 2.5 0 0 1 12 4.5V5a3 3 0 0 1-3 3H8a2 2 0 0 0-2 2v1a1 1 0 0 1-1 1a1 1 0 0 1-1-1v-1a4 4 0 0 1 4-4h1a1 1 0 0 0 1-1V4.5A4.5 4.5 0 0 0 5.5 0h-1a.5.5 0 0 0-.5.5v.5A1 1 0 0 1 3 2a1 1 0 0 1-1-1v-.5A2.5 2.5 0 0 1 4.5 0h1A4.5 4.5 0 0 1 9.5 2z" />
  <path d="M14.5 22a2.5 2.5 0 0 1-2.5-2.5V19a3 3 0 0 1 3-3h1a2 2 0 0 0 2-2v-1a1 1 0 0 1 1-1a1 1 0 0 1 1 1v1a4 4 0 0 1-4 4h-1a1 1 0 0 0-1 1v1.5a4.5 4.5 0 0 0 4.5 4.5h1a.5.5 0 0 0 .5-.5V22a1 1 0 0 1 1-1a1 1 0 0 1 1 1v.5a2.5 2.5 0 0 1-2.5 2.5h-1a4.5 4.5 0 0 1-4-4.5z" />
  <path d="M12 9H9a1 1 0 0 0-1 1v3a1 1 0 0 1-1 1h0a1 1 0 0 1-1-1v-3a3 3 0 0 1 3-3h3" />
  <path d="M15 15h-3a3 3 0 0 1-3-3v0a1 1 0 0 1 1-1h0a1 1 0 0 1 1 1v0a1 1 0 0 0 1 1h3" />
</svg> 